<svg xmlns="http://www.w3.org/2000/svg" xmlns:xlink="http://www.w3.org/1999/xlink" width="1210px" height="880px" viewBox="0 0 1210 880" preserveAspectRatio="xMidYMid meet" ><rect id="svgEditorBackground" x="0" y="0" width="1210" height="880" style="fill: none; stroke: none;"/><path d="M1208,340c-105.50449775269999,-24.49211003459999,-369.636680532,-61.734175511499984,-431,-44c-294.363319468,66.73417551160003,-307.6334349477,27.833440111699986,-391,55c-83.36656505230002,27.166559888400002,-211.7628414881,98.62941990640002,-267,152c-55.2371585119,53.37058009359998,-77.3677066513,82.48972238229999,-114,150" style="stroke:black;fill:none;stroke-width:1px;" id="e4_curve3"/><path d="M1213,449c-105.50449775269999,-24.49211003459999,-369.636680532,-61.734175511499984,-431,-44c-294.363319468,66.73417551160003,-307.6334349477,27.833440111699986,-391,55c-83.36656505230002,27.166559888400002,-211.7628414881,98.62941990640002,-267,152c-55.23715851189999,53.37058009359998,-77.3677066513,82.48972238229999,-114,150" style="stroke:black;fill:none;stroke-width:1px;" id="e13_curve3"/><rect x="1041" y="210" style="fill:khaki;stroke:black;stroke-width:1px;" id="e5_rectangle" width="110" height="59"/><rect x="894" y="215" style="fill:khaki;stroke:black;stroke-width:1px;" id="e2_rectangle" width="110" height="59"/><rect x="742" y="203" style="fill:khaki;stroke:black;stroke-width:1px;" id="e1_rectangle" width="110" height="59"/><rect x="581" y="207" style="fill:khaki;stroke:black;stroke-width:1px;" id="e3_rectangle" width="110" height="59"/><rect x="395" y="224" style="fill:khaki;stroke:black;stroke-width:1px;" id="e4_rectangle" width="110" height="59"/><rect x="228" y="274" style="fill:khaki;stroke:black;stroke-width:1px;" id="e6_rectangle" width="110" height="59"/><rect x="61" y="349" style="fill:khaki;stroke:black;stroke-width:1px;" id="e7_rectangle" width="110" height="59"/><rect x="1051" y="498" style="fill:khaki;stroke:black;stroke-width:1px;" id="e8_rectangle" width="110" height="59"/><rect x="1053" y="607" style="fill:khaki;stroke:black;stroke-width:1px;" id="e9_rectangle" width="110" height="59" transform="matrix(0.0142513 0.969355 -0.969355 0.0142513 1726.22 -436.825)" ry="0" rx="0"/><rect x="1185.886474609375" y="608.490478515625" style="fill:khaki;stroke:black;stroke-width:1px;" id="e14_rectangle" width="110" height="59" transform="matrix(0.0142513 0.969355 -0.969355 0.0142513 1726.22 -436.825)" ry="0" rx="0"/></svg>